<mxfile host="app.diagrams.net" modified="2022-10-08T06:49:01.265Z" agent="5.0 (Windows NT 10.0; Win64; x64) AppleWebKit/537.36 (KHTML, like Gecko) Chrome/105.0.0.0 Safari/537.36" etag="XkINNlqMGAmeTYSGRcBe" version="20.4.0" type="github">
  <diagram id="FxXh_qyI8c8mg8j4aweR" name="페이지-1">
    <mxGraphModel dx="1038" dy="521" grid="1" gridSize="10" guides="1" tooltips="1" connect="1" arrows="1" fold="1" page="1" pageScale="1" pageWidth="827" pageHeight="1169" math="0" shadow="0">
      <root>
        <mxCell id="0" />
        <mxCell id="1" parent="0" />
        <mxCell id="zbahY2p51AuoQjmVbx6N-72" style="edgeStyle=orthogonalEdgeStyle;rounded=0;orthogonalLoop=1;jettySize=auto;html=1;exitX=0.5;exitY=0;exitDx=0;exitDy=0;entryX=-0.005;entryY=0.622;entryDx=0;entryDy=0;entryPerimeter=0;endArrow=none;endFill=0;" edge="1" parent="1" source="zbahY2p51AuoQjmVbx6N-43" target="zbahY2p51AuoQjmVbx6N-48">
          <mxGeometry relative="1" as="geometry" />
        </mxCell>
        <mxCell id="zbahY2p51AuoQjmVbx6N-77" style="edgeStyle=orthogonalEdgeStyle;rounded=0;orthogonalLoop=1;jettySize=auto;html=1;exitX=0.5;exitY=1;exitDx=0;exitDy=0;entryX=0.005;entryY=0.131;entryDx=0;entryDy=0;entryPerimeter=0;endArrow=none;endFill=0;" edge="1" parent="1" source="zbahY2p51AuoQjmVbx6N-43">
          <mxGeometry relative="1" as="geometry">
            <mxPoint x="231.1500000000001" y="371.40599999999995" as="targetPoint" />
          </mxGeometry>
        </mxCell>
        <mxCell id="zbahY2p51AuoQjmVbx6N-79" style="edgeStyle=orthogonalEdgeStyle;rounded=0;orthogonalLoop=1;jettySize=auto;html=1;exitX=0.25;exitY=1;exitDx=0;exitDy=0;entryX=0;entryY=0.5;entryDx=0;entryDy=0;endArrow=none;endFill=0;" edge="1" parent="1" source="zbahY2p51AuoQjmVbx6N-43" target="zbahY2p51AuoQjmVbx6N-60">
          <mxGeometry relative="1" as="geometry" />
        </mxCell>
        <mxCell id="zbahY2p51AuoQjmVbx6N-43" value="Farmer" style="swimlane;fontStyle=1;align=center;verticalAlign=top;childLayout=stackLayout;horizontal=1;startSize=26;horizontalStack=0;resizeParent=1;resizeParentMax=0;resizeLast=0;collapsible=1;marginBottom=0;" vertex="1" parent="1">
          <mxGeometry x="10" y="280" width="160" height="34" as="geometry" />
        </mxCell>
        <mxCell id="zbahY2p51AuoQjmVbx6N-45" value="" style="line;strokeWidth=1;fillColor=none;align=left;verticalAlign=middle;spacingTop=-1;spacingLeft=3;spacingRight=3;rotatable=0;labelPosition=right;points=[];portConstraint=eastwest;strokeColor=inherit;" vertex="1" parent="zbahY2p51AuoQjmVbx6N-43">
          <mxGeometry y="26" width="160" height="8" as="geometry" />
        </mxCell>
        <mxCell id="zbahY2p51AuoQjmVbx6N-47" value="manunal_ctrl_DB" style="swimlane;fontStyle=1;align=center;verticalAlign=top;childLayout=stackLayout;horizontal=1;startSize=26;horizontalStack=0;resizeParent=1;resizeParentMax=0;resizeLast=0;collapsible=1;marginBottom=0;" vertex="1" parent="1">
          <mxGeometry x="230" y="90" width="160" height="110" as="geometry" />
        </mxCell>
        <mxCell id="zbahY2p51AuoQjmVbx6N-48" value="+ Mode_onoff: boolean&#xa;+ pump: boolean&#xa;+ fan: boolean&#xa;+ led: boolean" style="text;strokeColor=none;fillColor=none;align=left;verticalAlign=top;spacingLeft=4;spacingRight=4;overflow=hidden;rotatable=0;points=[[0,0.5],[1,0.5]];portConstraint=eastwest;" vertex="1" parent="zbahY2p51AuoQjmVbx6N-47">
          <mxGeometry y="26" width="160" height="64" as="geometry" />
        </mxCell>
        <mxCell id="zbahY2p51AuoQjmVbx6N-49" value="" style="line;strokeWidth=1;fillColor=none;align=left;verticalAlign=middle;spacingTop=-1;spacingLeft=3;spacingRight=3;rotatable=0;labelPosition=right;points=[];portConstraint=eastwest;strokeColor=inherit;" vertex="1" parent="zbahY2p51AuoQjmVbx6N-47">
          <mxGeometry y="90" width="160" height="20" as="geometry" />
        </mxCell>
        <mxCell id="zbahY2p51AuoQjmVbx6N-51" value="picture" style="swimlane;fontStyle=1;align=center;verticalAlign=top;childLayout=stackLayout;horizontal=1;startSize=26;horizontalStack=0;resizeParent=1;resizeParentMax=0;resizeLast=0;collapsible=1;marginBottom=0;" vertex="1" parent="1">
          <mxGeometry x="530" y="476" width="160" height="78" as="geometry" />
        </mxCell>
        <mxCell id="zbahY2p51AuoQjmVbx6N-52" value="+ date: datetime&#xa;+ img_url: string" style="text;strokeColor=none;fillColor=none;align=left;verticalAlign=top;spacingLeft=4;spacingRight=4;overflow=hidden;rotatable=0;points=[[0,0.5],[1,0.5]];portConstraint=eastwest;" vertex="1" parent="zbahY2p51AuoQjmVbx6N-51">
          <mxGeometry y="26" width="160" height="44" as="geometry" />
        </mxCell>
        <mxCell id="zbahY2p51AuoQjmVbx6N-53" value="" style="line;strokeWidth=1;fillColor=none;align=left;verticalAlign=middle;spacingTop=-1;spacingLeft=3;spacingRight=3;rotatable=0;labelPosition=right;points=[];portConstraint=eastwest;strokeColor=inherit;" vertex="1" parent="zbahY2p51AuoQjmVbx6N-51">
          <mxGeometry y="70" width="160" height="8" as="geometry" />
        </mxCell>
        <mxCell id="zbahY2p51AuoQjmVbx6N-55" value="auto_ctrl" style="swimlane;fontStyle=1;align=center;verticalAlign=top;childLayout=stackLayout;horizontal=1;startSize=26;horizontalStack=0;resizeParent=1;resizeParentMax=0;resizeLast=0;collapsible=1;marginBottom=0;" vertex="1" parent="1">
          <mxGeometry x="550" y="270" width="160" height="180" as="geometry" />
        </mxCell>
        <mxCell id="zbahY2p51AuoQjmVbx6N-56" value="+ farmer_temp: float&#xa;+ farmer_humi: float&#xa;+ farmer_light: float&#xa; + sensor_temp: float&#xa; + sensor_humi: float&#xa; + sensor_light: float&#xa;" style="text;strokeColor=none;fillColor=none;align=left;verticalAlign=top;spacingLeft=4;spacingRight=4;overflow=hidden;rotatable=0;points=[[0,0.5],[1,0.5]];portConstraint=eastwest;" vertex="1" parent="zbahY2p51AuoQjmVbx6N-55">
          <mxGeometry y="26" width="160" height="94" as="geometry" />
        </mxCell>
        <mxCell id="zbahY2p51AuoQjmVbx6N-57" value="" style="line;strokeWidth=1;fillColor=none;align=left;verticalAlign=middle;spacingTop=-1;spacingLeft=3;spacingRight=3;rotatable=0;labelPosition=right;points=[];portConstraint=eastwest;strokeColor=inherit;" vertex="1" parent="zbahY2p51AuoQjmVbx6N-55">
          <mxGeometry y="120" width="160" height="8" as="geometry" />
        </mxCell>
        <mxCell id="zbahY2p51AuoQjmVbx6N-58" value="+ pump_onoff(boolean)&#xa;+ fan_onoff(boolean)&#xa;+ led_onoff(boolean)" style="text;strokeColor=none;fillColor=none;align=left;verticalAlign=top;spacingLeft=4;spacingRight=4;overflow=hidden;rotatable=0;points=[[0,0.5],[1,0.5]];portConstraint=eastwest;" vertex="1" parent="zbahY2p51AuoQjmVbx6N-55">
          <mxGeometry y="128" width="160" height="52" as="geometry" />
        </mxCell>
        <mxCell id="zbahY2p51AuoQjmVbx6N-59" value="diary" style="swimlane;fontStyle=1;align=center;verticalAlign=top;childLayout=stackLayout;horizontal=1;startSize=26;horizontalStack=0;resizeParent=1;resizeParentMax=0;resizeLast=0;collapsible=1;marginBottom=0;" vertex="1" parent="1">
          <mxGeometry x="230" y="450" width="170" height="94" as="geometry" />
        </mxCell>
        <mxCell id="zbahY2p51AuoQjmVbx6N-60" value="+ date: datetime&#xa;+ diary_text: string&#xa;" style="text;strokeColor=none;fillColor=none;align=left;verticalAlign=top;spacingLeft=4;spacingRight=4;overflow=hidden;rotatable=0;points=[[0,0.5],[1,0.5]];portConstraint=eastwest;" vertex="1" parent="zbahY2p51AuoQjmVbx6N-59">
          <mxGeometry y="26" width="170" height="34" as="geometry" />
        </mxCell>
        <mxCell id="zbahY2p51AuoQjmVbx6N-61" value="" style="line;strokeWidth=1;fillColor=none;align=left;verticalAlign=middle;spacingTop=-1;spacingLeft=3;spacingRight=3;rotatable=0;labelPosition=right;points=[];portConstraint=eastwest;strokeColor=inherit;" vertex="1" parent="zbahY2p51AuoQjmVbx6N-59">
          <mxGeometry y="60" width="170" height="8" as="geometry" />
        </mxCell>
        <mxCell id="zbahY2p51AuoQjmVbx6N-62" value="+ show_diary(date,diary_text)" style="text;strokeColor=none;fillColor=none;align=left;verticalAlign=top;spacingLeft=4;spacingRight=4;overflow=hidden;rotatable=0;points=[[0,0.5],[1,0.5]];portConstraint=eastwest;" vertex="1" parent="zbahY2p51AuoQjmVbx6N-59">
          <mxGeometry y="68" width="170" height="26" as="geometry" />
        </mxCell>
        <mxCell id="zbahY2p51AuoQjmVbx6N-63" value="auto_ctrl_DB" style="swimlane;fontStyle=1;align=center;verticalAlign=top;childLayout=stackLayout;horizontal=1;startSize=26;horizontalStack=0;resizeParent=1;resizeParentMax=0;resizeLast=0;collapsible=1;marginBottom=0;" vertex="1" parent="1">
          <mxGeometry x="230" y="270" width="170" height="148" as="geometry" />
        </mxCell>
        <mxCell id="zbahY2p51AuoQjmVbx6N-64" value="+ Mode_onoff: boolean&#xa;+ farmer_temp: float&#xa;+ farmer_humi: float&#xa;+ farmer_light: float&#xa; + sensor_temp: float&#xa; + sensor_humi: float&#xa; + sensor_light: float&#xa;" style="text;strokeColor=none;fillColor=none;align=left;verticalAlign=top;spacingLeft=4;spacingRight=4;overflow=hidden;rotatable=0;points=[[0,0.5],[1,0.5]];portConstraint=eastwest;" vertex="1" parent="zbahY2p51AuoQjmVbx6N-63">
          <mxGeometry y="26" width="170" height="114" as="geometry" />
        </mxCell>
        <mxCell id="zbahY2p51AuoQjmVbx6N-65" value="" style="line;strokeWidth=1;fillColor=none;align=left;verticalAlign=middle;spacingTop=-1;spacingLeft=3;spacingRight=3;rotatable=0;labelPosition=right;points=[];portConstraint=eastwest;strokeColor=inherit;" vertex="1" parent="zbahY2p51AuoQjmVbx6N-63">
          <mxGeometry y="140" width="170" height="8" as="geometry" />
        </mxCell>
        <mxCell id="zbahY2p51AuoQjmVbx6N-67" value="manunal_ctrl" style="swimlane;fontStyle=1;align=center;verticalAlign=top;childLayout=stackLayout;horizontal=1;startSize=26;horizontalStack=0;resizeParent=1;resizeParentMax=0;resizeLast=0;collapsible=1;marginBottom=0;" vertex="1" parent="1">
          <mxGeometry x="480" y="90" width="160" height="160" as="geometry" />
        </mxCell>
        <mxCell id="zbahY2p51AuoQjmVbx6N-68" value="+ Mode_onoff: boolean&#xa;+ pump: boolean&#xa;+ fan: boolean&#xa;+ led: boolean" style="text;strokeColor=none;fillColor=none;align=left;verticalAlign=top;spacingLeft=4;spacingRight=4;overflow=hidden;rotatable=0;points=[[0,0.5],[1,0.5]];portConstraint=eastwest;" vertex="1" parent="zbahY2p51AuoQjmVbx6N-67">
          <mxGeometry y="26" width="160" height="64" as="geometry" />
        </mxCell>
        <mxCell id="zbahY2p51AuoQjmVbx6N-69" value="" style="line;strokeWidth=1;fillColor=none;align=left;verticalAlign=middle;spacingTop=-1;spacingLeft=3;spacingRight=3;rotatable=0;labelPosition=right;points=[];portConstraint=eastwest;strokeColor=inherit;" vertex="1" parent="zbahY2p51AuoQjmVbx6N-67">
          <mxGeometry y="90" width="160" height="8" as="geometry" />
        </mxCell>
        <mxCell id="zbahY2p51AuoQjmVbx6N-70" value="+ pump_onoff(boolean)&#xa;+ fan_onoff(boolean)&#xa;+ led_onoff(boolean)" style="text;strokeColor=none;fillColor=none;align=left;verticalAlign=top;spacingLeft=4;spacingRight=4;overflow=hidden;rotatable=0;points=[[0,0.5],[1,0.5]];portConstraint=eastwest;" vertex="1" parent="zbahY2p51AuoQjmVbx6N-67">
          <mxGeometry y="98" width="160" height="62" as="geometry" />
        </mxCell>
        <mxCell id="zbahY2p51AuoQjmVbx6N-75" value="" style="endArrow=none;html=1;rounded=0;entryX=1;entryY=0.008;entryDx=0;entryDy=0;entryPerimeter=0;exitX=0.003;exitY=0.008;exitDx=0;exitDy=0;exitPerimeter=0;" edge="1" parent="1" source="zbahY2p51AuoQjmVbx6N-70">
          <mxGeometry width="50" height="50" relative="1" as="geometry">
            <mxPoint x="450" y="380" as="sourcePoint" />
            <mxPoint x="390" y="182.20799999999997" as="targetPoint" />
          </mxGeometry>
        </mxCell>
        <mxCell id="zbahY2p51AuoQjmVbx6N-76" value="Select manual mode" style="text;html=1;align=center;verticalAlign=middle;resizable=0;points=[];autosize=1;strokeColor=none;fillColor=none;" vertex="1" parent="1">
          <mxGeometry x="90" y="115" width="130" height="30" as="geometry" />
        </mxCell>
        <mxCell id="zbahY2p51AuoQjmVbx6N-78" value="Select auto mode" style="text;html=1;align=center;verticalAlign=middle;resizable=0;points=[];autosize=1;strokeColor=none;fillColor=none;" vertex="1" parent="1">
          <mxGeometry x="95" y="340" width="120" height="30" as="geometry" />
        </mxCell>
        <mxCell id="zbahY2p51AuoQjmVbx6N-80" value="Select diary mode" style="text;html=1;align=center;verticalAlign=middle;resizable=0;points=[];autosize=1;strokeColor=none;fillColor=none;" vertex="1" parent="1">
          <mxGeometry x="100" y="460" width="120" height="30" as="geometry" />
        </mxCell>
        <mxCell id="zbahY2p51AuoQjmVbx6N-82" value="Show" style="text;html=1;align=center;verticalAlign=middle;resizable=0;points=[];autosize=1;strokeColor=none;fillColor=none;" vertex="1" parent="1">
          <mxGeometry x="135" y="500" width="50" height="30" as="geometry" />
        </mxCell>
        <mxCell id="zbahY2p51AuoQjmVbx6N-83" value="" style="endArrow=diamondThin;endFill=0;endSize=24;html=1;rounded=0;entryX=0.979;entryY=1.124;entryDx=0;entryDy=0;exitX=0;exitY=0.25;exitDx=0;exitDy=0;entryPerimeter=0;" edge="1" parent="1" source="zbahY2p51AuoQjmVbx6N-51" target="zbahY2p51AuoQjmVbx6N-60">
          <mxGeometry width="160" relative="1" as="geometry">
            <mxPoint x="512.0799999999999" y="515.01" as="sourcePoint" />
            <mxPoint x="560" y="350" as="targetPoint" />
          </mxGeometry>
        </mxCell>
        <mxCell id="zbahY2p51AuoQjmVbx6N-84" value="" style="endArrow=none;html=1;rounded=0;exitX=1;exitY=0.5;exitDx=0;exitDy=0;entryX=0;entryY=0.5;entryDx=0;entryDy=0;" edge="1" parent="1" source="zbahY2p51AuoQjmVbx6N-64" target="zbahY2p51AuoQjmVbx6N-56">
          <mxGeometry width="50" height="50" relative="1" as="geometry">
            <mxPoint x="450" y="380" as="sourcePoint" />
            <mxPoint x="500" y="330" as="targetPoint" />
          </mxGeometry>
        </mxCell>
      </root>
    </mxGraphModel>
  </diagram>
</mxfile>
